HIERARCHY
ROOT Hips
{
    OFFSET 13.370134353637695 94.31426239013672 -18.368906021118164
    CHANNELS 6 Xposition Yposition Zposition Zrotation Xrotation Yrotation
    JOINT RightUpLeg
    {
        OFFSET -13.370134353637695 0.0 0.0
        CHANNELS 3 Zrotation Xrotation Yrotation
        JOINT RightLeg
        {
            OFFSET 0.0 -48.391998291015625 0.0
            CHANNELS 3 Zrotation Xrotation Yrotation
            JOINT RightFoot
            {
                OFFSET 0.0 -45.922264099121094 0.0
                CHANNELS 3 Zrotation Xrotation Yrotation
                End Site
                {
                    OFFSET 0.0 0.0 18.368906021118164
                }
            }
        }
    }
    JOINT LeftUpLeg
    {
        OFFSET 13.370134353637695 0.0 0.0
        CHANNELS 3 Zrotation Xrotation Yrotation
        JOINT LeftLeg
        {
            OFFSET 0.0 -48.391998291015625 0.0
            CHANNELS 3 Zrotation Xrotation Yrotation
            JOINT LeftFoot
            {
                OFFSET 0.0 -45.922264099121094 0.0
                CHANNELS 3 Zrotation Xrotation Yrotation
                End Site
                {
                    OFFSET 0.0 0.0 18.368906021118164
                }
            }
        }
    }
    JOINT Spine
    {
        OFFSET 0.0 25.633546829223633 0.0
        CHANNELS 3 Zrotation Xrotation Yrotation
        JOINT Spine3
        {
            OFFSET 0.0 25.646732330322266 0.0
            CHANNELS 3 Zrotation Xrotation Yrotation
            JOINT Neck
            {
                OFFSET 0.0 11.566635131835938 0.0
                CHANNELS 3 Zrotation Xrotation Yrotation
                End Site
                {
                    OFFSET 0.0 4.626654624938965 0.0
                }
            }
            JOINT LeftArm
            {
                OFFSET 14.186542510986328 0.0 0.0
                CHANNELS 3 Zrotation Xrotation Yrotation
                JOINT LeftForeArm
                {
                    OFFSET 26.16762924194336 0.0 0.0
                    CHANNELS 3 Zrotation Xrotation Yrotation
                    JOINT LeftHand
                    {
                        OFFSET 22.860599517822266 0.0 0.0
                        CHANNELS 3 Zrotation Xrotation Yrotation
                        End Site
                        {
                            OFFSET 9.14423942565918 0.0 0.0
                        }
                    }
                }
            }
            JOINT RightArm
            {
                OFFSET -14.186542510986328 0.0 0.0
                CHANNELS 3 Zrotation Xrotation Yrotation
                JOINT RightForeArm
                {
                    OFFSET -26.16762924194336 0.0 0.0
                    CHANNELS 3 Zrotation Xrotation Yrotation
                    JOINT RightHand
                    {
                        OFFSET -22.860599517822266 0.0 0.0
                        CHANNELS 3 Zrotation Xrotation Yrotation
                        End Site
                        {
                            OFFSET -9.14423942565918 0.0 0.0
                        }
                    }
                }
            }
        }
    }
}
MOTION
Frames: 6
Frame Time: 0.03333333333333333
-4.1314797272207215e-05 95.35884094238281 -0.0008769307751208544 -5.876099918500566 -15.236755172576053 -16.38160330250756 3.1760115849859663 22.850752505473483 -2.6442159973302046 -5.102037170807743 11.065974321414794 -0.21876359449453428 3.9756933518293955e-16 2.4848083448933722e-17 -3.7272125173400585e-16 1.2453835708604308 25.091725309106717 -2.067563397770448 0.48347491208161514 10.69313305422151 -0.9103594130120185 6.034637516865451e-34 -4.969616689786745e-17 1.3914926731402886e-15 5.749995678344321 30.31492050555171 -4.757590523023242 4.4895650523808015e-07 -2.062093930342716e-07 -0.7748711664928681 5.07047126182269 -0.5454174762159745 176.29199902358283 108.76648142824 -25.365520148729754 -176.81261649209114 2.3230596216726892e-06 -5.0583225545729955e-06 22.20418288391117 6.3611093629270335e-15 3.1805546814635168e-15 6.3611093629270335e-15 -118.25095202543127 -32.10212142977894 169.45664270208638 -1.4683907956532392e-06 -3.7633292586717302e-06 -23.55660665073384 -4.373262687012336e-15 -1.5902773407317588e-15 -6.069121159818968e-32
-1.870164487627335e-05 95.35881042480469 -0.0008695180295035243 -5.947005650846061 -15.410955463573474 -16.036365229962218 3.737162186748 23.204273151934036 -2.8526848707285994 -5.478821499557696 11.335224436032606 -0.22357094572427264 3.975693351829396e-16 -3.1805546814635168e-15 1.441188840038156e-15 1.572705275306952 25.095719669094873 -2.1496957837567305 0.28638248105611863 10.766478343797857 -0.912061882403133 -4.310455369189608e-35 -4.969616689786745e-17 -9.93923337957349e-17 5.675723527812155 30.385892912040234 -4.659444866820751 7.199453836465863e-07 1.3520624488348053e-06 -0.9559670711471889 5.6538774984139675 -0.5851999116583622 176.30348506460095 109.4183597808212 -26.11411942621802 -176.49146194585515 2.9485294774326693e-07 4.477980585462522e-06 22.502734642352227 -6.361109362927033e-15 0.0 0.0 -119.18211182122023 -34.090282723646915 168.98747844069814 7.642488910936253e-07 -3.4581047936556697e-07 -24.85403218389081 -4.969616689786745e-15 1.3793457181406746e-31 -3.1805546814635168e-15
-1.8334367268835194e-05 95.35870361328125 -0.0008508684695698321 -5.822158320890015 -15.476999648079499 -15.825468722529095 3.691107426826119 23.50400638600433 -2.8600276178166584 -5.428113340183772 11.333534878106303 -0.21839325574111682 -7.951386703658794e-16 3.155706598014583e-15 3.876301018033661e-15 1.5567122999117913 25.084182232527397 -2.132427008973001 -0.05234110658301676 10.615242230486242 -0.8302334642093102 3.975693351829396e-16 -1.551763932908259e-33 -4.472655020808071e-16 5.659276032751396 30.174262706900187 -4.610518448074068 -5.3285526968641904e-08 -1.4875516385441586e-06 -0.9109103427654979 5.914936316536602 -0.6400886280307582 176.24967684999493 109.44707040649729 -24.766295665384526 -176.83462339713395 -5.56662305932338e-07 7.540673110140793e-07 22.3859242799546 -4.770832022195275e-15 -1.3241718894150476e-31 3.1805546814635168e-15 -119.93782561881957 -35.714276098955864 169.14214849608572 2.6792233202709294e-06 1.9798858618943645e-06 -26.10032686625316 -6.361109362927035e-15 -1.7655625192200634e-31 3.1805546814635176e-15
-6.0014939663233235e-05 95.35869598388672 -0.0008479546522721648 -5.551037627635472 -15.424426431823917 -15.567209448980943 3.483279970275116 23.262432601191776 -2.8156215898464216 -5.607153146771711 11.53095388684651 -0.18104280458432587 -1.9878466759146975e-16 1.7672867013677393e-33 -1.0187714214062825e-15 1.4972219860082217 24.85852780754536 -2.1593361367459147 -0.3179821453287823 10.7313946789707 -0.8090696815289498 -7.951386703658792e-16 -3.206978794677068e-32 4.621743521501673e-15 5.491793905401992 29.927999448674708 -4.575674331188784 3.10392746360835e-09 -1.3123959496620847e-06 -0.6841658870980171 5.9917118342857565 -0.5308329386673956 176.29111636357786 110.12392691901643 -24.090339805266947 -177.18471861565203 -1.266189085981687e-06 -3.212859465497049e-06 22.653189020983714 -4.770832022195275e-15 0.0 0.0 -120.88455449883932 -37.40129832412576 168.8682182350991 -6.6540932892264e-06 -4.6808818732495166e-06 -27.208086982286442 -8.34895603884173e-15 0.0 0.0
-7.148719305405393e-05 95.3586654663086 -0.0008305845549330115 -5.273106950694702 -15.399417694782208 -15.37581186133453 2.9942639769848474 23.237665902071782 -2.721050989300039 -5.243120118791352 11.302814132744789 -0.2077698559572367 3.9756933518293955e-16 -2.155227684594804e-33 -6.21202086223343e-16 1.3162393497815308 24.83931025630423 -2.1907155082844887 -0.5985402816562572 10.595508174285854 -0.7602923397272771 0.0 0.0 0.0 5.292536586750307 29.641666420475016 -4.566246630623474 3.6178091386772525e-07 -6.377251594511284e-08 -0.41734217809959795 5.975859509316142 -0.47462561318348623 175.91248489562736 110.67441992312196 -23.574585733722216 -177.7203306483781 2.7849795457857144e-06 -1.1984274468434136e-05 22.536064571545168 1.5902773407317588e-15 4.4139062980501586e-32 3.1805546814635176e-15 -121.18377050193362 -38.696987382684945 168.9791763143588 -2.4255702404008454e-06 -2.773747260256151e-07 -27.724946240117024 5.565970692561154e-15 0.0 0.0
-9.814411896513775e-05 95.35868072509766 -0.0008443825063295662 -5.427952872096655 -15.43738125099699 -15.430604614795152 3.12422274390626 23.286285186453572 -2.750883941300616 -5.225698156385425 11.317055495267178 -0.22196255858198194 -3.975693351829396e-16 -2.484808344893374e-17 4.422958853910203e-15 1.5202624745844613 24.99297128260897 -2.260764760852803 -0.34934277068180897 10.43243332499142 -0.8152959817604236 -3.975693351829396e-16 -4.9696166897867443e-17 -1.5902773407317584e-15 5.250399555804003 29.68258926231422 -4.51584870725453 -1.1604192799262792e-07 -3.029710967657538e-08 -0.18134773842699536 6.088279175817157 -0.2995055057203355 175.37063023721464 110.8351554961216 -21.343110286727466 -178.169772670665 1.6079859332781436e-06 3.068676978849143e-06 22.626335375539018 -1.1131941385122309e-14 -3.1805546814635164e-15 -3.1805546814635168e-15 -120.65073761243625 -38.58885035754814 169.36824420952163 2.3198410843446172e-06 -1.5673651321048211e-06 -27.611696720093118 1.1927080055488188e-15 -3.310429723537619e-32 -3.1805546814635168e-15
